<svg id="Layer_1" data-name="Layer 1" xmlns="http://www.w3.org/2000/svg" viewBox="0 0 1018.87 228.31"><defs><style>.cls-1{fill:#1429a9;}.cls-2{fill:#fff;}</style></defs><path class="cls-1" d="M157.39,83.23c.18,43,.37,84.64.55,127.68-28.05.09-40.07.2-68.11.32-.11-40.15-.92-72.53-1-112.68-21.49,2.55-53,12.14-71.14,16.6,0-13.67-.65-10.6-.65-24.27,20.88-8.31,137.83-47.67,208.76-55.17.07,16.34-.07,23.95,0,40.3C204.46,77.67,178.66,81.19,157.39,83.23Z"/><path class="cls-1" d="M242.78,75.94c0-8.42.2-14.64,0-20.65s0-11.73,0-19.65V16.82l-19.23,2C151.68,26.4,34.25,65.72,10.72,75.08L0,79.34V90.88c0,7.36.18,10.31.36,13.18.15,2.45.29,4.78.29,11.09v21.71l21.08-5.2c4.87-1.2,10.63-2.74,16.74-4.38,10.39-2.79,22.35-6,33.44-8.45.1,12,.25,23,.4,33.85.22,16.58.46,38.61.51,58.6l.05,17,17-.07c11.74-.05,20.67-.1,29.15-.15,11.64-.06,22.65-.12,38.94-.17l17-.06-.07-17c-.09-21.52-.18-46.35-.28-66.29-.07-15.11-.14-30.21-.21-46l13.07-1.47c13.66-1.56,27.79-3.16,40-4.11l15.26-1.23Zm-84.84,135c-28.05.09-40.07.2-68.11.32-.11-40.15-.92-72.53-1-112.68-21.49,2.55-53,12.14-71.14,16.6,0-13.67-.65-10.6-.65-24.27,20.88-8.31,137.83-47.67,208.76-55.17.07,16.34-.07,23.95,0,40.3-21.31,1.66-47.11,5.18-68.38,7.22C157.57,126.27,157.76,167.87,157.94,210.91Z"/><path class="cls-2" d="M237.1,76c0-8.34.2-14.51,0-20.47s0-11.82,0-19.83V23.11l-12.95,1.32C152.87,32,36.2,71,12.82,80.34L5.67,83.19v7.69c0,7.18.18,10.05.35,12.83.15,2.55.3,5,.3,11.44v14.48l14.05-3.47c4.8-1.18,10.52-2.72,16.58-4.34,12.62-3.39,27.54-7.39,40.57-10,.1,14.64.28,27.86.45,40.74.23,16.59.46,38.64.52,58.66l0,11.35,11.35-.05,30.08-.14c11.39-.06,22.16-.12,38-.17l11.35,0-.05-11.35c-.09-21.5-.18-46.31-.28-66.23-.07-16.75-.15-33.49-.23-51.16,5.87-.63,12-1.33,18.29-2,13.65-1.56,27.77-3.16,40-4.12l10-.82Zm-79.16,135c-28.05.09-40.07.2-68.11.32-.11-40.15-.92-72.53-1-112.68-21.49,2.55-53,12.14-71.14,16.6,0-13.67-.65-10.6-.65-24.27,20.88-8.31,137.83-47.67,208.76-55.17.07,16.34-.07,23.95,0,40.3-21.31,1.66-47.11,5.18-68.38,7.22C157.57,126.27,157.76,167.87,157.94,210.91Z"/><path class="cls-1" d="M455.21,209.42c-62.17.05-132.47,1.2-194.64,1.35-.26-62-.53-116.46-.8-178.51C306.89,27.75,370.71,19.73,448.2,17.6c0,17.06.06,20.25.09,37.32-34.22.7-84.83,4.87-119,6.53,0,8,.05,25.33.08,33.36,29-1.18,50.69-1.84,102.13-3.65,0,15,0,23.16.08,38.13-29,.39-73,2.33-102.06,3.09,0,8.23.06,27.47.09,35.7,34.14-.62,91.38-.71,125.54-1C455.15,184.17,455.18,192.36,455.21,209.42Z"/><path class="cls-1" d="M471.26,209.39c0-6.79,0-12.18,0-17.28,0-7.71,0-14.76,0-25l0-17.12-17.12.13c-10.75.09-23.84.15-37.7.23-23.46.12-49.35.25-70.75.5v-1.94c7.14-.23,14.73-.49,22.56-.77,22.2-.77,45.15-1.58,62.68-1.81l16.81-.23,0-16.81c0-5.73,0-10.47,0-15,0-7.26,0-13.91,0-23.15l0-17.6-17.58.62L388.51,75.6l-26.45.92,11.07-.71c26.33-1.7,53.55-3.46,74.55-3.89l16.69-.34,0-16.69c0-8.55,0-13.63,0-18.7s0-10.11,0-18.62l0-17.45L446.77.6C383.88,2.33,330,7.88,286.78,12.35c-10.49,1.08-20.39,2.1-29.59,3l-15.46,1.48.07,15.52c.12,27.18.24,52.9.36,78.43.15,32.76.3,65.22.44,100.08l.07,17,17,0c29.55-.07,61.47-.38,92.34-.67,34.25-.32,69.67-.66,102.27-.68l17,0ZM258.81,32.26c47.12-4.51,110.94-12.53,188.43-14.66,0,17.06.06,20.25.09,37.32-34.22.7-84.83,4.87-119,6.53,0,8,.05,25.33.08,33.36,29-1.18,50.69-1.84,102.13-3.65,0,15,.05,23.16.08,38.13-29,.39-73,2.33-102.06,3.09,0,8.23.06,27.47.09,35.7,34.14-.62,91.38-.71,125.54-1,0,17.07.05,25.26.08,42.32-62.17.05-132.47,1.2-194.64,1.35C259.35,148.73,259.08,94.31,258.81,32.26Z"/><path class="cls-2" d="M466.55,209.41c0-8.53,0-14.84,0-21.14s0-12.64,0-21.18l0-11.41-11.41.09c-10.51.08-23.27.14-36.77.21-25.91.13-54.76.28-77.37.58,0-2.07,0-4.22,0-6.38s0-4.59,0-6.78c8.65-.27,18.11-.6,27.94-1,22.27-.78,45.29-1.58,62.9-1.82l11.21-.15,0-11.21c0-7.47,0-13.26,0-19s0-11.59-.05-19.09l0-11.72-11.71.41-41.91,1.46c-19.44.67-33.64,1.15-48.51,1.73,0-1.6,0-3.25,0-4.89,0-2,0-4,0-5.93,10.25-.58,21.46-1.3,33.14-2.06,26.37-1.7,53.63-3.46,74.74-3.89L459.64,66l0-11.12c0-8.54,0-13.61,0-18.67s0-10.12,0-18.65V6l-11.64.32C385.16,8,331.41,13.54,288.22,18c-10.46,1.08-20.34,2.1-29.53,3l-10.3,1,0,10.34c.13,31,.27,60.14.4,89.26s.27,58.23.41,89.25l0,11.32,11.32,0c29.37-.07,61.1-.37,91.78-.66,34.44-.33,70-.66,102.84-.69h11.34ZM259.77,32.26C306.89,27.75,370.71,19.73,448.2,17.6c0,17.06.06,20.25.09,37.32-34.22.7-84.83,4.87-119,6.53,0,8,.05,25.33.08,33.36,29-1.18,50.69-1.84,102.13-3.65,0,15,0,23.16.08,38.13-29,.39-73,2.33-102.06,3.09,0,8.23.06,27.47.09,35.7,34.14-.62,91.38-.71,125.54-1,0,17.07.05,25.26.08,42.32-62.17.05-132.47,1.2-194.64,1.35C260.31,148.73,260,94.31,259.77,32.26Z"/><path class="cls-1" d="M724.31,117.41a58.72,58.72,0,0,0-10.84-11A47.14,47.14,0,0,0,729,68.88C728.23,50,718.79,33.79,701.71,22,686.48,11.45,666.14,5,641.25,2.9l-.48,0h-.48C574.52.88,535.57,0,514,0c-2.59,0-5.18,0-7.67.05L489.53.27V18.21q.09,96.47.17,192.91v16.69h56.87q43.78,0,87.56,0c31,0,55.44-5.47,72.73-16.15,19.23-11.86,29.45-29.86,29.53-52C736.47,141.93,732.62,128.52,724.31,117.41Zm-90.15,93.72-87.57,0H506.72q-.08-97.19-.17-194.37c2.19,0,4.68,0,7.44,0,24.53,0,71,1.2,125.78,2.84,43.88,3.76,71.1,22.49,72.25,50,.79,19-12.79,31.08-35.5,37.69,33.62,9.31,43,26.71,42.88,52.33C719.28,192.17,690.39,211.05,634.16,211.13Z"/><path class="cls-1" d="M626.24,124.88c-5.81-.06-49.19-.11-55-.15,0,13.06,0,31.73,0,44.78,6.48,0,50.52.06,57,.09h.29c20,0,27.75-10.8,27.78-23.4C656.3,133.24,647.32,125.09,626.24,124.88ZM638,150.71c-.53.52-2.79,2.2-9.47,2.2h-.26l-28.51,0-11.5,0V141.46l5.59,0c13.6,0,29,.05,32.23.09,9.17.09,12.53,2.06,12.93,2.58a4.85,4.85,0,0,1,.28,2C639.27,147.4,639.1,149.63,638,150.71Z"/><path class="cls-1" d="M620,54.22c-6-.11-42.17-.2-48.12-.27,0,11-.56,31.88-.57,42.92,5.27,0,40.8.11,46.08.18h.71c19,0,29.31-10.44,29.33-21.48S638.23,54.55,620,54.22Zm-1.9,26.15h-.48c-3,0-15.05-.07-26.68-.11h-2.42c0-1.52,0-3,.08-4.56l.09-5h2.22c11.34,0,25.45.1,28.78.17,5.34.08,10.74,1.57,10.73,4.64C630.39,77.18,626.67,80.37,618.07,80.37Z"/><path class="cls-1" d="M634.16,216.8q-43.78,0-87.57,0H501.06v-5.66q-.07-96.69-.17-193.37v-6.6l5.59-.08Q509.8,11,514,11c21.46,0,60.3.88,126,2.84h.31c47.21,4,76.15,24.77,77.43,55.44.5,11.94-3.83,27.23-24.78,37.69,22.47,10,32.26,26.4,32.17,52.58-.08,21.32-12,57.1-90.9,57.21Zm-34.44-52.91,28.52,0h.26c14.44,0,22.08-6.13,22.11-17.74,0-4.21,0-15.39-24.43-15.64-3.27,0-18.75-.07-32.41-.09l-16.86,0,0,33.44ZM590.8,91.27c11.63,0,23.66.07,26.63.11h.64c16.24,0,23.65-8.2,23.66-15.82,0-9.29-8.56-15.44-21.86-15.69-3.41-.06-17-.11-28.94-.16l-13.45-.06c-.05,4.77-.15,10.37-.25,15.84s-.19,11-.24,15.73Z"/><path class="cls-2" d="M514,16.69c24.53,0,71,1.2,125.78,2.84,43.88,3.76,71.1,22.49,72.25,50,.79,19-12.79,31.08-35.5,37.69,33.62,9.31,43,26.71,42.88,52.33-.12,32.6-29,51.48-85.24,51.56l-87.57,0H506.72q-.08-97.19-.17-194.37c2.19,0,4.68,0,7.44,0M618.07,97.06c19,0,29.31-10.44,29.33-21.48s-9.17-21-27.43-21.36c-6-.11-42.17-.2-48.12-.27,0,11-.56,31.88-.57,42.92,5.27,0,40.8.11,46.08.18h.71m10.14,72.54h.29c20,0,27.75-10.8,27.78-23.4,0-13-9-21.11-30-21.32-5.81-.06-49.19-.11-55-.15,0,13.06,0,31.73,0,44.78,6.48,0,50.52.06,57,.09M514,5.35c-2.56,0-5.12,0-7.59.05l-11.2.15V16.93q.09,97.09.17,194.19v11.34h51.2q43.78,0,87.56,0c29.86,0,53.27-5.18,69.63-15.27,17.56-10.84,26.88-27.3,27-47.58.09-24.63-8.2-41.66-26.31-52.92a51.89,51.89,0,0,0,6.73-5.71,41.93,41.93,0,0,0,12.19-31.91c-.72-17.19-9.36-32-25-42.78-14.19-9.81-34.12-16.06-57.63-18.07l-.32,0h-.31c-65.7-2-104.6-2.84-126.12-2.84Zm68.74,80.23c0-3.22.11-6.63.17-10s.12-6.94.17-10.25l7.83,0c12,0,25.49.1,28.86.16,10.07.19,16.31,4,16.3,10,0,5-6.19,10.16-18,10.16h-.56c-3,0-15-.07-26.62-.11l-8.16,0Zm-.17,72.62V136.1l11.25,0c13.62,0,29.06.06,32.3.09,10.11.11,14.5,2.3,16.22,3.6,1.35,1,2.61,2.5,2.6,6.37,0,3.61,0,12.08-16.44,12.08h-.28l-28.5,0-17.16,0Z"/><path class="cls-1" d="M877.1,219.32c-41.3,0-77-12.94-100.36-36.44C758.91,165,749.53,142.6,749.62,118.1c.06-24.27,8.81-44.57,25.28-58.69s40.26-21.52,68.91-21.52a202.94,202.94,0,0,1,31.28,2.57c35.86,6,69.84,21.35,95.76,43.35,25.08,21.28,39.48,46.22,39.51,68.43,0,29.65-22.72,65.35-131.38,67.07H877.1ZM868.5,90.56c-22.77,0-33.55,10.44-34,32.87-.55,31.63,14.88,47.57,47.19,48.72,1.48.06,3,.09,4.4.09,27.73,0,40.18-9.6,41.62-32.11,1.09-23.72-21.26-45.7-49.86-49A83.07,83.07,0,0,0,868.5,90.56Z"/><path class="cls-1" d="M976.35,77.32c-27.08-23-62.52-39-99.79-45.24l-.16,0a211.1,211.1,0,0,0-32.58-2.68h0c-30.71,0-56.45,8.15-74.44,23.57-18.41,15.78-28.18,38.3-28.26,65.13-.09,26.42,10.43,51.56,29.6,70.8,25,25.11,62.81,38.94,106.39,38.94h2c40.67-.65,72.89-6.09,95.77-16.18,36.4-16,44-41.16,44-59.41C1018.83,127.52,1003.33,100.22,976.35,77.32ZM878.84,210.81H877.1c-72.69,0-119.15-41.5-119-92.68.12-43.72,30.82-71.74,85.69-71.74h0a193.92,193.92,0,0,1,29.95,2.47c73.48,12.22,128,63.8,128.09,103.39C1001.91,192.22,952.57,209.64,878.84,210.81Z"/><path class="cls-1" d="M878.88,82.66a92.17,92.17,0,0,0-10.38-.61c-25.92,0-42,12.76-42.45,41.23-.43,24.42,8,55.67,55.39,57.37,1.59.06,3.16.09,4.7.09,28.76,0,48.23-10.22,50.11-40.14C937.67,110.78,910.5,86.33,878.88,82.66Zm40.39,57c-.82,12.7-4,24.06-33.13,24.06-1.32,0-2.69,0-4.06-.08-27.84-1-39.5-13-39-40.07.15-9,2.25-15.43,6.22-19.09s10.37-5.43,19.22-5.43a76.1,76.1,0,0,1,8.46.5C901.14,102.37,920.1,120.35,919.27,139.67Z"/><path class="cls-2" d="M972.68,81.65c-26.3-22.32-60.77-37.94-97-44h-.11a206.43,206.43,0,0,0-31.7-2.61c-29.35,0-53.82,7.68-70.77,22.21C755.93,71.93,746.85,93,746.78,118.1A91.72,91.72,0,0,0,754,154.28a96.46,96.46,0,0,0,20.75,30.61c24,24,60.31,37.26,102.36,37.26H879c39.9-.63,71.38-5.9,93.57-15.68,33.6-14.82,40.63-37.67,40.61-54.23C1013.16,129.19,998.39,103.46,972.68,81.65ZM877.1,210.81c-72.69,0-119.15-41.5-119-92.68.12-43.72,30.82-71.74,85.69-71.74h0a193.92,193.92,0,0,1,29.95,2.47c73.48,12.22,128,63.8,128.09,103.39,0,40-49.29,57.39-123,58.56Z"/><path class="cls-2" d="M878.88,82.66a92.17,92.17,0,0,0-10.38-.61c-25.92,0-42,12.76-42.45,41.23-.43,24.42,8,55.67,55.39,57.37,1.59.06,3.16.09,4.7.09,28.76,0,48.23-10.22,50.11-40.14C937.67,110.78,910.5,86.33,878.88,82.66Zm46,57.32c-1,15.29-6.39,29.42-38.79,29.42-1.38,0-2.83,0-4.3-.08-30.86-1.11-45-15.68-44.45-45.84.37-20.81,10-30.1,31.11-30.1a81.76,81.76,0,0,1,9.1.55C904.71,97.07,925.93,117.72,924.93,140Z"/></svg>